# xmcd
#
# Track frame offsets:
# 150
# 18493
# 28046
# 42473
# 60413
# 70332
# 91372
# 100602
# 109486
# 121170
# 134075
#
# Disc length: 1979 seconds
#
# Revision: 1
# Processed by: cddbd v1.5.2PL0 Copyright (c) Steve Scherf et al.
# Submitted via: CedeCatalogueitor 2.6.0.6 http://personales.ya.com/cdcatalogueitor
#
DISCID=9807b90b
DTITLE=Vacaciones - Emmaboda
DYEAR=1900
DGENRE=
TTITLE0=Emmaboda
TTITLE1=Dis Berlin
TTITLE2=Mil Piruetas
TTITLE3=Suelta Los Problemas ¡ya!
TTITLE4=¿Qué Tienen Otras...?
TTITLE5=Agosto
TTITLE6=Batido De Vainilla
TTITLE7=Sé Que Voy A Vomitar
TTITLE8=Fenoscandia
TTITLE9=2 Corren X 3 Calles
TTITLE10=Moral Femenina
EXTD=
EXTT0=
EXTT1=
EXTT2=
EXTT3=
EXTT4=
EXTT5=
EXTT6=
EXTT7=
EXTT8=
EXTT9=
EXTT10=
PLAYORDER=
